<?xml version="1.0" standalone="no"?>
<!DOCTYPE svg PUBLIC "-//W3C//DTD SVG 20010904//EN"
 "http://www.w3.org/TR/2001/REC-SVG-20010904/DTD/svg10.dtd">
<svg version="1.0" xmlns="http://www.w3.org/2000/svg"
 width="500.000000pt" height="500.000000pt" viewBox="0 0 500.000000 500.000000"
 preserveAspectRatio="xMidYMid meet">

<g transform="translate(0.000000,500.000000) scale(0.100000,-0.100000)"
fill="#000000" stroke="none">
<path d="M3047 4739 c-27 -16 -83 -49 -125 -73 -42 -24 -127 -72 -188 -108
-103 -61 -113 -64 -135 -52 -13 7 -27 13 -30 14 -8 0 -9 -574 -1 -586 4 -6 17
-16 30 -23 19 -10 28 -10 45 2 12 8 47 28 79 45 l56 32 20 -34 c24 -40 60 -64
66 -44 3 7 15 46 27 86 l23 72 93 53 93 52 0 298 c0 163 -1 297 -2 297 -2 0
-25 -14 -51 -31z m-335 -297 c-24 -21 -32 -35 -32 -60 l0 -33 30 16 c23 12 31
24 36 55 8 52 24 52 24 0 0 -35 -5 -42 -44 -70 -25 -16 -49 -30 -55 -30 -7 0
-11 23 -11 58 0 55 1 58 38 79 48 27 56 19 14 -15z m0 -150 c-24 -20 -32 -35
-32 -59 0 -38 2 -39 35 -17 17 11 27 29 31 55 9 52 24 50 24 -4 0 -39 -3 -44
-45 -70 -25 -15 -50 -27 -55 -27 -6 0 -10 26 -10 58 0 55 1 58 38 79 48 27 56
19 14 -15z m1 -151 c-25 -20 -33 -36 -33 -59 0 -37 2 -38 35 -16 17 11 27 29
31 55 9 53 24 49 24 -5 0 -42 -3 -46 -44 -70 -25 -14 -49 -26 -55 -26 -7 0
-11 22 -11 55 0 51 2 56 37 79 47 32 58 23 16 -13z"/>
<path d="M1057 4716 c-46 -17 -74 -40 -95 -81 -8 -16 -23 -36 -33 -43 -23 -16
-33 -69 -25 -125 6 -41 8 -43 36 -39 22 3 35 -2 53 -22 41 -44 52 -36 67 44 7
35 18 58 34 71 14 11 27 32 31 48 5 24 13 30 43 35 64 10 130 7 171 -10 32
-13 41 -23 49 -52 8 -30 10 -32 11 -12 3 84 -60 168 -142 189 -61 15 -153 13
-200 -3z"/>
<path d="M1334 4498 c-4 -5 0 -14 7 -19 20 -13 29 -11 29 5 0 18 -27 29 -36
14z"/>
<path d="M1147 4493 c-4 -3 -7 -12 -7 -20 0 -11 4 -11 19 -1 11 7 17 16 15 20
-6 10 -18 10 -27 1z"/>
<path d="M1321 4436 c-9 -10 -8 -16 3 -25 10 -9 16 -8 25 3 9 10 8 16 -3 25
-10 9 -16 8 -25 -3z"/>
<path d="M1170 4426 c0 -21 21 -31 30 -15 5 7 6 17 4 21 -9 14 -34 9 -34 -6z"/>
<path d="M1231 4266 c22 -22 49 -25 49 -5 0 5 -1 9 -3 9 -1 0 -17 4 -35 9
l-33 10 22 -23z"/>
<path d="M990 4268 c0 -7 5 -20 10 -28 8 -12 10 -9 10 13 0 15 -4 27 -10 27
-5 0 -10 -6 -10 -12z"/>
<path d="M987 4133 c-24 -46 -50 -59 -146 -77 -100 -19 -136 -38 -174 -93 -26
-36 -32 -61 -57 -234 l-28 -194 26 -22 c31 -26 94 -38 163 -30 48 6 49 6 49
-22 0 -26 11 -35 125 -99 166 -94 176 -97 261 -85 84 12 96 9 84 -22 -8 -22
-6 -24 41 -34 27 -6 76 -11 109 -11 65 0 86 -15 52 -38 -12 -8 -22 -21 -22
-29 0 -28 -33 -62 -76 -79 -51 -19 -148 -15 -218 10 -23 8 -113 38 -201 66
-88 28 -166 54 -172 56 -8 4 -13 -2 -13 -15 0 -14 -6 -21 -19 -21 -11 0 -33
-8 -50 -17 l-31 -18 2 -160 3 -160 39 -20 38 -20 -7 -120 c-14 -270 -35 -462
-60 -560 -22 -86 -27 -134 -35 -340 -7 -199 -6 -242 5 -254 20 -20 167 -28
181 -10 6 8 19 48 28 89 111 473 238 953 258 975 5 6 6 -91 1 -245 -11 -365
-10 -435 17 -623 27 -197 24 -193 138 -183 42 3 76 7 78 9 1 1 14 115 29 252
31 299 41 471 51 872 l7 303 36 10 c20 5 61 14 91 21 30 6 62 15 71 20 9 5 44
89 84 206 37 109 71 203 75 208 8 11 70 187 70 200 0 7 -80 -2 -108 -13 -11
-4 -13 -2 -7 8 6 10 0 12 -24 8 -17 -2 -31 -1 -31 3 0 5 -8 13 -19 18 -26 15
-88 -5 -107 -34 -8 -13 -29 -27 -45 -30 -16 -4 -31 -11 -34 -16 -15 -23 -24
-3 -27 61 -3 77 4 85 42 45 13 -14 30 -25 37 -25 39 0 145 76 168 120 14 27
13 29 -90 150 -144 168 -167 184 -283 196 -48 4 -81 13 -97 26 -28 22 -31 14
-15 -42 7 -24 7 -52 -1 -89 l-11 -53 -41 40 c-23 23 -73 63 -112 89 -54 37
-71 55 -75 78 l-6 30 -17 -32z"/>
<path d="M2990 3793 c-91 -52 -185 -107 -210 -121 -25 -14 -81 -46 -125 -72
-44 -26 -113 -66 -152 -89 l-73 -42 0 -137 0 -138 30 -17 30 -18 0 -105 0
-106 -77 43 -77 42 -31 -18 c-16 -10 -50 -29 -75 -43 -66 -37 -334 -192 -420
-243 l-75 -45 -3 -581 -2 -582 -70 -38 c-63 -34 -70 -41 -70 -69 0 -38 0 -37
120 -107 259 -148 562 -324 715 -412 94 -54 191 -110 216 -124 l45 -24 95 55
c52 31 137 80 189 110 52 30 172 99 265 153 94 54 199 115 235 135 69 40 219
126 495 285 94 54 186 107 205 118 19 10 71 41 115 67 44 26 105 62 135 78 48
27 55 35 57 64 3 32 -1 35 -86 86 -49 28 -92 52 -95 52 -3 0 -6 -15 -6 -32 0
-31 -6 -36 -83 -79 -45 -26 -149 -86 -232 -134 -82 -49 -170 -99 -195 -113
-25 -13 -85 -48 -135 -77 -267 -156 -264 -155 -290 -143 l-25 11 0 224 c0 122
-4 223 -8 223 -4 0 -12 -4 -17 -9 -6 -5 -65 -40 -132 -79 l-121 -69 -119 68
c-65 38 -164 95 -220 126 -57 32 -103 61 -103 64 0 3 38 27 85 53 l85 48 0
190 c0 147 3 189 13 186 21 -5 167 -93 167 -100 0 -3 -19 -17 -42 -30 -40 -21
-43 -27 -46 -68 -2 -41 0 -47 28 -62 l30 -17 0 43 c0 41 3 45 49 73 l48 30 89
-52 c49 -28 131 -77 183 -107 l94 -55 151 87 c83 48 207 120 276 160 69 40
154 89 190 109 36 20 91 52 123 71 l57 35 0 298 0 299 -42 -25 c-24 -13 -103
-59 -177 -101 -116 -67 -137 -76 -155 -66 -37 20 -61 42 -51 46 6 2 62 35 125
73 l115 68 3 141 3 140 -143 83 c-79 45 -181 105 -228 132 -95 55 -81 48 -313
181 -93 53 -169 96 -170 95 -1 0 -76 -43 -167 -96z m-60 -218 c63 -36 118 -69
122 -73 12 -12 3 -18 -151 -106 l-133 -78 -57 35 c-31 18 -86 50 -123 71 -37
20 -69 40 -72 45 -3 4 21 23 54 42 33 19 95 55 137 81 43 26 85 47 94 47 8 1
66 -28 129 -64z m-341 -247 l121 -71 0 -84 c0 -46 -4 -83 -9 -83 -8 0 -108 54
-196 107 l-50 29 -3 87 c-1 48 1 87 6 87 5 0 64 -32 131 -72z m-133 -399 c57
-34 104 -65 104 -69 0 -5 -28 -24 -62 -43 -35 -19 -79 -44 -99 -55 l-35 -22
-55 34 c-30 18 -78 47 -108 63 -29 16 -53 33 -53 39 -1 12 163 112 186 113 10
1 65 -27 122 -60z m1274 -19 c22 -11 40 -24 40 -28 0 -4 -24 -20 -52 -35 -29
-14 -115 -62 -190 -106 l-137 -80 -40 22 c-23 12 -41 24 -41 27 0 3 17 14 38
26 20 12 105 60 187 107 83 48 151 87 153 87 1 0 21 -9 42 -20z m-1140 -1040
c22 -11 80 -45 130 -75 50 -30 92 -55 94 -55 8 0 177 -102 174 -105 -13 -11
-258 -145 -265 -145 -8 0 -102 52 -366 205 -37 22 -66 44 -64 49 3 10 235 146
249 146 5 0 27 -9 48 -20z m-575 -121 l125 -70 0 -85 c0 -48 -4 -84 -10 -84
-5 0 -64 30 -130 68 l-120 67 0 88 c0 48 2 87 5 87 3 0 61 -32 130 -71z m1013
-545 l-3 -87 -119 -68 c-65 -38 -123 -69 -128 -69 -5 0 -7 39 -6 87 l3 87 115
67 c63 37 121 68 128 68 10 1 12 -20 10 -85z"/>
<path d="M2725 3570 c8 -13 80 -50 97 -50 7 0 -10 14 -39 30 -56 32 -68 36
-58 20z"/>
<path d="M2650 3535 c0 -8 91 -58 96 -52 3 2 -15 16 -40 31 -44 26 -56 30 -56
21z"/>
<path d="M2628 3469 c29 -17 55 -29 58 -27 5 5 -89 58 -102 58 -5 0 15 -14 44
-31z"/>
<path d="M2503 3285 c0 -38 2 -53 4 -32 2 20 2 52 0 70 -2 17 -4 1 -4 -38z"/>
<path d="M2553 3255 c0 -38 2 -53 4 -32 2 20 2 52 0 70 -2 17 -4 1 -4 -38z"/>
<path d="M2610 3221 c0 -33 5 -63 10 -66 6 -4 10 18 10 59 0 37 -4 66 -10 66
-6 0 -10 -26 -10 -59z"/>
<path d="M2355 2920 c-16 -11 -25 -20 -20 -20 6 0 24 9 40 20 17 11 26 20 20
20 -5 0 -23 -9 -40 -20z"/>
<path d="M2413 2889 c-18 -12 -33 -23 -33 -25 0 -5 44 18 70 35 29 20 -5 10
-37 -10z"/>
<path d="M2474 2864 c-18 -14 -18 -15 4 -4 12 6 22 13 22 15 0 8 -5 6 -26 -11z"/>
<path d="M1933 1705 c0 -38 2 -53 4 -32 2 20 2 52 0 70 -2 17 -4 1 -4 -38z"/>
<path d="M1983 1675 c0 -38 2 -53 4 -32 2 20 2 52 0 70 -2 17 -4 1 -4 -38z"/>
<path d="M2043 1645 c0 -38 2 -53 4 -32 2 20 2 52 0 70 -2 17 -4 1 -4 -38z"/>
<path d="M2083 1615 c0 -38 2 -53 4 -32 2 20 2 52 0 70 -2 17 -4 1 -4 -38z"/>
<path d="M2973 1175 c0 -38 2 -53 4 -32 2 20 2 52 0 70 -2 17 -4 1 -4 -38z"/>
<path d="M2910 1145 c0 -37 4 -65 10 -65 6 0 10 28 10 65 0 37 -4 65 -10 65
-6 0 -10 -28 -10 -65z"/>
<path d="M2853 1110 c0 -41 2 -58 4 -37 2 20 2 54 0 75 -2 20 -4 3 -4 -38z"/>
<path d="M4213 1985 c0 -38 2 -53 4 -32 2 20 2 52 0 70 -2 17 -4 1 -4 -38z"/>
<path d="M4153 1955 c0 -38 2 -53 4 -32 2 20 2 52 0 70 -2 17 -4 1 -4 -38z"/>
<path d="M2907 1979 c-22 -11 -37 -23 -34 -25 5 -5 77 35 77 42 0 6 -1 5 -43
-17z"/>
<path d="M4093 1925 c0 -38 2 -53 4 -32 2 20 2 52 0 70 -2 17 -4 1 -4 -38z"/>
<path d="M2962 1948 c-18 -11 -31 -22 -29 -25 5 -4 77 36 77 43 0 8 -15 2 -48
-18z"/>
<path d="M3017 1921 c-40 -26 -47 -36 -12 -18 42 23 62 37 50 36 -5 0 -22 -8
-38 -18z"/>
<path d="M3767 1803 c-2 -5 0 -37 3 -73 l7 -65 1 73 c2 67 -1 83 -11 65z"/>
<path d="M3630 1685 c-19 -10 -27 -10 -32 -2 -5 8 -8 6 -8 -5 0 -21 4 -22 31
-8 17 10 19 7 19 -30 0 -25 -4 -39 -10 -35 -5 3 -10 1 -10 -5 0 -7 6 -10 13
-8 6 3 14 28 17 56 3 29 5 52 5 52 0 -1 -11 -7 -25 -15z"/>
<path d="M4413 1693 c-32 -12 -1 -98 54 -148 37 -33 37 -34 18 -55 -24 -26
-69 -20 -142 21 -29 16 -55 29 -58 29 -3 0 -5 -22 -5 -48 0 -54 6 -62 82 -106
57 -32 85 -28 134 21 46 46 76 107 77 159 0 51 -11 67 -78 105 -50 29 -60 32
-82 22z"/>
<path d="M3495 1670 c-3 -5 -1 -10 4 -10 6 0 11 5 11 10 0 6 -2 10 -4 10 -3 0
-8 -4 -11 -10z"/>
<path d="M3466 1653 c-10 -11 -7 -81 5 -89 6 -3 9 -19 7 -35 -4 -24 -2 -27 14
-18 10 5 18 12 18 15 0 3 -4 2 -10 -1 -6 -3 -10 5 -10 19 0 14 5 28 10 31 6 3
10 12 10 18 0 7 -5 4 -11 -5 -16 -29 -29 -21 -29 18 0 21 4 33 10 29 6 -3 10
-2 10 4 0 13 -15 22 -24 14z"/>
<path d="M1186 1288 c-10 -90 -7 -165 8 -177 7 -6 36 -18 64 -26 27 -8 80 -36
118 -62 75 -51 135 -73 201 -73 56 0 129 18 144 36 14 18 10 18 -34 -1 -40
-16 -163 -20 -186 -6 -36 23 40 109 112 127 l27 6 -35 19 c-37 20 -73 18 -110
-7 -11 -8 -23 -14 -28 -14 -17 0 4 18 39 35 27 13 33 19 23 26 -16 10 -56 2
-84 -17 -11 -8 -23 -14 -28 -14 -17 0 4 18 39 35 29 14 34 19 22 26 -17 9 -84
-6 -93 -21 -4 -6 -11 -10 -17 -10 -21 0 14 29 48 40 19 7 32 16 29 21 -10 15
-48 10 -90 -11 -21 -11 -41 -18 -43 -15 -8 8 63 45 86 45 26 0 26 0 -7 53 -26
42 -33 43 -85 22 -31 -13 -36 -19 -30 -38 6 -21 5 -21 -22 4 -62 54 -61 54
-68 -3z"/>
<path d="M657 1300 c-3 -14 -11 -63 -17 -110 -6 -47 -17 -112 -24 -145 -7 -33
-12 -61 -11 -62 1 -2 17 2 36 7 50 15 97 12 157 -9 l54 -18 -6 21 c-3 11 -9
85 -12 164 -4 79 -10 138 -14 132 -5 -8 -9 -4 -13 9 -4 18 -13 21 -66 21 -42
0 -61 -4 -62 -12 0 -7 -4 -4 -9 7 -7 19 -8 18 -13 -5z m155 -99 c11 -11 7 -12
-22 -5 -19 5 -60 8 -90 7 -40 -2 -51 0 -40 8 20 14 137 6 152 -10z m-16 -49
c7 -4 -23 -7 -67 -7 -78 0 -105 9 -51 18 32 6 100 -1 118 -11z m-17 -48 c17
-4 31 -11 31 -15 0 -5 -12 -6 -27 -2 -16 5 -51 8 -80 7 -29 0 -50 3 -47 8 6 9
78 11 123 2z m20 -63 c9 -6 -18 -7 -70 -4 -46 3 -86 7 -88 9 -10 9 145 3 158
-5z"/>
<path d="M3163 965 c-9 -26 25 -100 62 -134 30 -27 34 -35 24 -53 -9 -17 -18
-20 -60 -16 -29 3 -64 15 -89 32 -22 14 -44 26 -50 26 -14 0 -12 -83 3 -101
24 -29 97 -69 126 -69 55 0 131 85 149 165 14 65 0 96 -62 133 -59 35 -93 41
-103 17z"/>
<path d="M610 874 c0 -21 51 -62 89 -72 52 -13 84 -5 113 26 l23 26 -29 -22
c-49 -37 -144 -22 -180 29 -9 13 -16 19 -16 13z"/>
</g>
</svg>
